<svg id="Layer_1" enable-background="new 0 0 512 512" height="512" viewBox="0 0 512 512" width="512" xmlns="http://www.w3.org/2000/svg"><g><g><path d="m110.602 411.565c-35.674 0-61.125-10.815-73.105-31.565-15.438-26.74-5.401-64.609 28.263-106.632 30.67-38.285 78.111-77.008 133.586-109.036 55.474-32.028 112.73-53.753 161.221-61.171 53.225-8.142 91.04 2.099 106.478 28.839s5.401 64.609-28.263 106.632c-30.67 38.285-78.111 77.008-133.586 109.036-55.474 32.028-112.73 53.753-161.221 61.171-11.922 1.824-23.076 2.726-33.373 2.726zm283.614-281.159c-8.81 0-18.572.789-29.114 2.402-44.895 6.868-98.436 27.288-150.76 57.497-52.325 30.21-96.779 66.368-125.175 101.814-24.665 30.789-34.271 58.036-25.697 72.886s36.973 20.155 75.97 14.188c44.895-6.868 98.436-27.288 150.76-57.497 52.325-30.21 96.779-66.368 125.175-101.814 24.665-30.788 34.271-58.036 25.697-72.886-6.256-10.836-23.073-16.59-46.856-16.59z" fill="#ff5876"/><g><g fill="#e6485d"><path d="m441.072 128.996c-6.256-10.836-23.074-16.59-46.856-16.59-8.81 0-18.572.789-29.114 2.402-44.895 6.868-98.436 27.288-150.76 57.497-52.325 30.21-96.779 66.368-125.175 101.814-22.372 27.926-32.353 52.938-27.618 68.429 3.118-14.145 12.553-31.623 27.618-50.429 28.396-35.446 72.85-71.604 125.175-101.814 52.324-30.209 105.866-50.629 150.76-57.497 10.542-1.613 20.303-2.402 29.114-2.402 23.782 0 40.6 5.754 46.856 16.59.797 1.381 1.436 2.869 1.921 4.457 1.987-9.014 1.416-16.678-1.921-22.457z"/><path d="m438.782 220.632c-30.67 38.285-78.111 77.008-133.586 109.036-55.474 32.028-112.73 53.753-161.221 61.171-11.922 1.824-23.076 2.726-33.373 2.726-35.674 0-61.125-10.815-73.105-31.565-3.32-5.75-5.454-12.018-6.436-18.728-1.797 13.707.3 26.099 6.436 36.728 11.98 20.75 37.431 31.565 73.105 31.565 10.297 0 21.451-.902 33.373-2.726 48.49-7.418 105.747-29.142 161.221-61.171 55.475-32.028 102.916-70.751 133.586-109.036 26.426-32.986 38.285-63.411 34.7-87.905-2.725 20.779-14.416 44.586-34.7 69.905z"/></g></g><path d="m438.782 273.368c-30.67-38.285-78.111-77.008-133.586-109.036-5.79-3.343-11.6-6.567-17.417-9.681-11.696 4.605-23.568 9.806-35.502 15.568 12.62 6.093 25.307 12.802 37.923 20.086 52.325 30.21 96.779 66.368 125.175 101.814 24.665 30.789 34.271 58.036 25.697 72.886s-36.974 20.153-75.97 14.188c-44.895-6.868-98.436-27.288-150.76-57.497-52.325-30.21-96.779-66.368-125.175-101.814-24.665-30.789-34.271-58.036-25.697-72.886 6.257-10.837 23.071-16.59 46.856-16.59 8.809 0 18.574.789 29.114 2.402 23.837 3.647 50.111 11.114 77.346 21.837 11.836-6.336 23.7-12.185 35.496-17.516-37.951-17.149-75.175-28.9-108.306-33.969-53.228-8.141-91.041 2.1-106.479 28.84s-5.401 64.609 28.263 106.632c30.67 38.285 78.111 77.008 133.586 109.036 55.474 32.028 112.73 53.753 161.221 61.171 11.926 1.824 23.073 2.726 33.373 2.726 35.67-.001 61.126-10.817 73.105-31.565 15.439-26.74 5.402-64.609-28.263-106.632z" fill="#a0e557"/><g><g fill="#87d654"><path d="m467.046 362c-11.979 20.748-37.435 31.564-73.105 31.565-10.3 0-21.448-.902-33.373-2.726-48.491-7.418-105.747-29.142-161.221-61.171-55.475-32.027-102.917-70.751-133.587-109.036-20.284-25.32-31.975-49.127-34.699-69.905-3.585 24.494 8.274 54.918 34.699 87.905 30.67 38.285 78.111 77.008 133.586 109.036 55.474 32.028 112.73 53.753 161.221 61.171 11.926 1.824 23.073 2.726 33.373 2.726 35.67-.001 61.126-10.817 73.105-31.565 6.137-10.629 8.233-23.02 6.436-36.728-.982 6.71-3.116 12.978-6.435 18.728z"/><g><path d="m236.071 144.747c-34.102-15.074-67.264-25.382-96.704-29.867-10.54-1.605-20.306-2.389-29.115-2.383-23.785.015-40.596 5.779-46.845 16.62-3.333 5.782-3.899 13.446-1.906 22.458.484-1.588 1.122-3.077 1.918-4.458 6.25-10.841 23.06-16.605 46.845-16.62 8.809-.006 18.575.777 29.115 2.383 23.839 3.631 50.118 11.081 77.36 21.787 6.44-3.452 12.889-6.759 19.332-9.92z"/><path d="m415.405 274.013c-28.419-35.428-72.896-71.557-125.241-101.733-6.414-3.698-12.847-7.247-19.28-10.644-6.188 2.706-12.407 5.566-18.645 8.582 12.624 6.085 25.315 12.785 37.936 20.061 52.344 30.176 96.822 66.305 125.241 101.733 15.078 18.796 24.524 36.268 27.651 50.411 4.726-15.493-5.272-40.498-27.662-68.41z"/></g></g></g><g fill="#ffcf4d"><path d="m309.052 396.641c-2.022 6.483-4.189 12.722-6.508 18.67-14.332 36.754-33.125 58.697-50.273 58.697-17.147 0-35.941-21.943-50.273-58.697-8.759-22.465-15.429-48.95-19.76-77.896-11.403-7.081-22.404-14.428-32.917-21.978 4.124 41.437 12.559 79.545 24.734 110.769 19.562 50.167 47.339 77.794 78.216 77.794s58.654-27.627 78.215-77.793c2.694-6.909 5.201-14.16 7.523-21.704-9.428-2.159-19.103-4.789-28.957-7.862z"/><g><path d="m326.563 213.114c1.033 13.976 1.567 28.317 1.567 42.886 0 39.889-3.963 78.1-11.403 111.641 9.888 3.116 19.563 5.74 28.952 7.853 8.115-36.075 12.442-76.987 12.442-119.494 0-6.687-.113-13.331-.325-19.927-9.835-7.826-20.277-15.505-31.233-22.959z"/><g><path d="m177.98 213.108c-10.958 7.454-21.397 15.136-31.233 22.963-.212 6.596-.325 13.242-.325 19.929 0 6.692.113 13.342.326 19.942 9.833 7.824 20.28 15.499 31.233 22.95-1.033-13.978-1.567-28.321-1.567-42.892s.532-28.914 1.566-42.892z"/><g><path d="m158.866 136.503c-4.242 18.858-7.451 39.033-9.545 60.072 10.513-7.551 21.512-14.901 32.917-21.984 1.559-10.419 3.425-20.513 5.578-30.222-9.885-3.118-19.562-5.752-28.95-7.866z"/><path d="m330.486 85.794c-19.561-50.167-47.338-77.794-78.215-77.794s-58.654 27.627-78.215 77.794c-2.694 6.908-5.193 14.171-7.514 21.715 9.426 2.16 19.093 4.783 28.944 7.858 2.022-6.486 4.192-12.727 6.512-18.677 14.332-36.755 33.125-58.698 50.273-58.698 17.147 0 35.941 21.943 50.273 58.698 8.759 22.463 15.428 48.946 19.759 77.889 11.404 7.082 22.404 14.432 32.917 21.982-4.125-41.437-12.559-79.544-24.734-110.767z"/></g></g></g></g><g fill="#ffb629"><g><path d="m345.68 375.494c8.115-36.075 12.442-76.987 12.442-119.494 0-3.009-.029-6.008-.072-9-.664 46.074-6.42 89.981-16.581 127.517 1.41.337 2.813.662 4.211.977z"/><path d="m332.389 403.172c-.625 1.695-1.257 3.378-1.903 5.034-19.561 50.167-47.338 77.794-78.215 77.794s-58.654-27.627-78.215-77.793c-10.223-26.219-17.804-57.294-22.414-91.116-.775-.55-1.55-1.101-2.32-1.653 4.124 41.437 12.559 79.545 24.734 110.769 19.561 50.166 47.338 77.793 78.215 77.793s58.654-27.627 78.215-77.793c2.694-6.909 5.201-14.16 7.523-21.704-1.865-.427-3.736-.867-5.62-1.331z"/><path d="m147.643 276.647c-.616-9.753-1.005-19.648-1.149-29.647-.043 2.992-.072 5.991-.072 9 0 6.692.113 13.342.326 19.942.295.236.597.47.895.705z"/></g><g><path d="m326.556 213.109c.819 11.09 1.327 22.408 1.5 33.891.045-2.991.074-5.989.074-9 0-8.131-.17-16.19-.495-24.156-.359-.245-.719-.49-1.079-.735z"/><g><path d="m176.908 213.845c-.325 7.966-.495 16.024-.495 24.155 0 3.011.029 6.009.074 9 .173-11.484.68-22.805 1.5-33.897-.362.247-.718.495-1.079.742z"/><g><path d="m184.426 143.316c-1.9 10.595-3.477 21.569-4.712 32.846.84-.528 1.687-1.052 2.532-1.576 1.558-10.417 3.423-20.509 5.575-30.217-1.135-.357-2.266-.708-3.395-1.053z"/><path d="m302.544 78.689c-14.332-36.755-33.125-58.698-50.273-58.698-17.147 0-35.941 21.943-50.273 58.698-4.236 10.863-7.973 22.679-11.203 35.246 1.56.467 3.123.942 4.692 1.432 2.022-6.486 4.191-12.727 6.511-18.678 14.332-36.755 33.125-58.698 50.273-58.698 17.147 0 35.941 21.943 50.273 58.698 8.758 22.461 15.423 48.944 19.752 77.885.849.527 1.689 1.061 2.534 1.591-4.009-36.594-11.587-70.036-22.286-97.476z"/></g></g></g></g><circle cx="252.271" cy="256" fill="#ffcf4d" r="46.992"/><path d="m252.271 284.992c-22.874 0-41.922-16.346-46.122-37.992-.565 2.914-.871 5.921-.871 9 0 25.953 21.039 46.992 46.992 46.992s46.992-21.039 46.992-46.992c0-3.079-.305-6.086-.871-9-4.198 21.646-23.246 37.992-46.12 37.992z" fill="#ffb629"/><circle cx="101.695" cy="116.163" fill="#ff5876" r="31.272"/><path d="m101.695 129.435c-14.142 0-26.085-9.389-29.951-22.272-.855 2.851-1.321 5.87-1.321 9 0 17.271 14.001 31.272 31.272 31.272s31.272-14.001 31.272-31.272c0-3.13-.465-6.149-1.321-9-3.866 12.883-15.81 22.272-29.951 22.272z" fill="#e6485d"/><ellipse cx="450.3" cy="192.711" fill="#86dcff" rx="31.272" ry="31.272" transform="matrix(.97 -.244 .244 .97 -33.368 115.425)"/><path d="m450.3 205.983c-14.142 0-26.085-9.389-29.951-22.272-.855 2.851-1.321 5.87-1.321 9 0 17.271 14.001 31.272 31.272 31.272s31.272-14.001 31.272-31.272c0-3.13-.465-6.149-1.321-9-3.866 12.883-15.81 22.272-29.951 22.272z" fill="#56caed"/><circle cx="205.279" cy="455.402" fill="#a0e557" r="31.272"/><path d="m205.279 468.674c-14.142 0-26.085-9.389-29.951-22.272-.855 2.851-1.321 5.871-1.321 9 0 17.271 14.001 31.272 31.272 31.272s31.272-14.001 31.272-31.272c0-3.129-.465-6.149-1.321-9-3.866 12.883-15.81 22.272-29.951 22.272z" fill="#87d654"/></g><g><g><g><path d="m197.662 256c0 9.109 2.29 18.128 6.623 26.083 1.985 3.645 6.549 4.991 10.194 3.005 3.645-1.985 4.99-6.549 3.005-10.194-3.135-5.756-4.793-12.29-4.793-18.894 0-21.818 17.751-39.57 39.57-39.57 21.818 0 39.569 17.751 39.569 39.57s-17.751 39.569-39.569 39.569c-5.639 0-11.081-1.159-16.176-3.444-3.786-1.696-8.232-.005-9.932 3.781-1.699 3.787-.005 8.233 3.781 9.932 7.042 3.159 14.554 4.76 22.326 4.76 30.106 0 54.599-24.493 54.599-54.599s-24.493-54.599-54.599-54.599c-30.105.001-54.598 24.494-54.598 54.6z"/><path d="m434.229 255.999c3.805-4.262 7.419-8.516 10.773-12.703 3.187-3.978 6.221-8.007 9.066-12.019 19.838-1.725 35.457-18.413 35.457-38.691 0-8.916-3.027-17.134-8.096-23.697 1.891-15.275-.611-29.017-7.465-40.89-17.123-29.659-57.725-41.227-114.331-32.566-5.306.811-10.802 1.815-16.399 2.98-1.778-5.4-3.64-10.647-5.603-15.683-20.803-53.349-51.121-82.73-85.37-82.73-20.493 0-40.113 10.78-56.738 31.176-2.622 3.217-2.14 7.951 1.077 10.573 3.218 2.621 7.951 2.139 10.573-1.077 13.869-17.015 29.039-25.642 45.088-25.642 27.625 0 52.971 25.982 71.366 73.161 10.223 26.219 17.885 57.96 22.41 92.576-5.464-3.692-11.035-7.327-16.71-10.896-4.475-28.528-11.092-54.162-19.694-76.222-15.76-40.417-36.671-63.597-57.372-63.597s-41.613 23.181-57.373 63.597c-1.508 3.869-2.973 7.939-4.389 12.131-4.891-1.434-9.726-2.75-14.503-3.958 1.585-4.753 3.221-9.328 4.898-13.629 3.299-8.459 6.885-16.368 10.662-23.508 1.941-3.668.54-8.216-3.129-10.156-3.669-1.942-8.216-.54-10.156 3.129-4.044 7.646-7.873 16.082-11.38 25.075-1.929 4.946-3.805 10.209-5.609 15.694-5.569-1.161-11.047-2.173-16.393-2.991-3.866-.591-7.712-1.095-11.477-1.504-7.01-10.19-18.747-16.888-32.023-16.888-15.578 0-29.036 9.221-35.223 22.488-16.145 5.926-28.115 15.491-35.609 28.47-17.125 29.661-6.839 70.607 28.961 115.296 3.392 4.234 6.994 8.471 10.773 12.704-3.803 4.26-7.418 8.515-10.773 12.703-35.799 44.688-46.084 85.635-28.96 115.295 13.365 23.148 40.944 35.384 79.756 35.384 10.721 0 22.354-.948 34.575-2.818 5.254-.804 10.75-1.81 16.396-2.989 1.779 5.403 3.642 10.653 5.606 15.691 1.156 2.965 2.403 5.939 3.684 8.896-2.708 5.295-4.247 11.283-4.247 17.627 0 21.421 17.427 38.848 38.848 38.848 1.187 0 2.358-.062 3.518-.167 13.5 11.633 28.141 17.526 43.567 17.526 34.249 0 64.567-29.381 85.369-82.73 1.948-4.996 3.825-10.254 5.614-15.681 5.555 1.156 11.026 2.157 16.388 2.978 12.222 1.87 23.854 2.818 34.575 2.818 38.813-.001 66.392-12.237 79.756-35.384 17.125-29.66 6.84-70.607-28.961-115.297-3.392-4.232-6.994-8.47-10.773-12.703zm-20.985-21.632c2.923-3.323 5.714-6.624 8.304-9.858.923-1.151 1.826-2.308 2.719-3.466 3.687 3.424 8.035 6.143 12.832 7.939-1.251 1.644-2.521 3.286-3.829 4.918-2.916 3.64-6.053 7.34-9.34 11.053-3.438-3.539-7.002-7.069-10.686-10.586zm37.433-17.961c-13.133 0-23.818-10.685-23.818-23.818 0-13.134 10.685-23.818 23.818-23.818 13.134 0 23.819 10.685 23.819 23.818-.001 13.133-10.686 23.818-23.819 23.818zm-88.772-106.116c50.056-7.655 85.23 1.302 99.042 25.225 3.728 6.457 5.731 13.764 6.014 21.816-4.697-2.178-9.897-3.441-15.375-3.568-.594-3.944-1.802-7.542-3.647-10.737-7.698-13.333-26.182-20.38-53.456-20.38-9.297 0-19.495.839-30.307 2.493-4.101.627-8.358 1.394-12.7 2.265-1.204-4.955-2.483-9.804-3.826-14.549 4.864-.991 9.641-1.86 14.255-2.565zm-7.128 31.78c3.994-.796 7.906-1.499 11.672-2.075 10.063-1.539 19.495-2.32 28.034-2.32 29.796 0 38.207 8.997 40.44 12.864.941 1.63 1.554 3.57 1.853 5.781-14.573 5.605-24.947 19.743-24.947 36.267 0 5.557 1.181 10.841 3.293 15.626-1.698 2.3-3.467 4.608-5.303 6.899-2.379 2.97-4.942 6.005-7.627 9.064-12.195-10.867-25.484-21.538-39.664-31.851-1.841-17.426-4.44-34.282-7.751-50.255zm10.604 137.6c5.544-4.476 10.882-8.987 15.954-13.479 3.7 3.515 7.266 7.04 10.68 10.572-8.667 7.713-17.945 15.351-27.731 22.84.468-6.597.842-13.243 1.097-19.933zm.427-19.891c.026-2.526.03-5.033.008-7.566 1.47 1.258 2.921 2.519 4.357 3.782-1.434 1.26-2.889 2.521-4.365 3.784zm-15.229-20.038c.146 5.484.224 10.94.224 16.259 0 38.679-3.688 76.747-10.686 110.649-4.764-1.191-9.599-2.515-14.492-3.962 6.652-32.577 10.158-69.291 10.158-106.686 0-9.324-.242-18.654-.675-27.903 5.304 3.835 10.465 7.72 15.471 11.643zm-35.096 93.279c-4.742 2.91-9.424 5.706-13.951 8.32-4.607 2.66-9.37 5.32-14.193 7.935-5.892-2.37-11.828-4.893-17.793-7.564 8.219-4.247 16.409-8.722 24.475-13.379 8.067-4.657 16.02-9.528 23.81-14.525-.669 6.502-1.454 12.912-2.348 19.213zm-6.436 21.336c1.076-.621 2.166-1.26 3.257-1.899-.354 1.901-.721 3.785-1.096 5.66-1.81-.611-3.626-1.237-5.448-1.881 1.1-.627 2.201-1.253 3.287-1.88zm10.388-137.177c.86 12.771 1.318 25.803 1.318 38.821 0 13.073-.449 26.047-1.309 38.779-10.627 7.129-21.677 14.036-32.937 20.537-11.265 6.504-22.774 12.641-34.259 18.279-11.394-5.596-22.84-11.701-34.233-18.279-11.387-6.574-22.391-13.43-32.929-20.495-.86-12.771-1.318-25.803-1.318-38.821 0-13.006.457-26.028 1.316-38.792 10.596-7.111 21.608-13.987 32.931-20.524 11.329-6.541 22.796-12.643 34.259-18.266 11.472 5.632 22.972 11.764 34.233 18.266 11.386 6.574 22.391 13.43 32.928 20.495zm-165.493 55.08c-.146-5.484-.224-10.94-.224-16.259 0-5.312.078-10.76.224-16.237 5.011-3.926 10.173-7.812 15.471-11.645-.432 9.243-.674 18.566-.674 27.882 0 9.324.243 18.654.675 27.903-5.305-3.836-10.466-7.721-15.472-11.644zm-15.237-12.472c-1.468-1.257-2.918-2.516-4.353-3.778 1.435-1.262 2.883-2.521 4.353-3.779-.02 2.535-.02 5.023 0 7.557zm71.795-76.119c-32.386 18.697-62.429 40.09-87.315 62.14-3.7-3.514-7.264-7.039-10.678-10.57 25.861-23.011 56.986-45.239 90.482-64.578 33.498-19.34 68.312-35.181 101.172-46.072 1.35 4.716 2.624 9.56 3.819 14.532-31.54 10.526-65.092 25.849-97.48 44.548zm-140.902-33.128c1.243-2.153 3.22-4.072 5.87-5.746 6.881 6.177 15.968 9.943 25.921 9.943 12.675 0 23.95-6.104 31.045-15.524 1.887.239 3.771.496 5.637.781 3.825.585 7.719 1.279 11.665 2.062-3.317 16.009-5.908 32.882-7.746 50.288-14.16 10.299-27.48 20.981-39.67 31.839-2.653-3.027-5.199-6.052-7.618-9.072-22.024-27.492-31.879-52.838-25.104-64.571zm129.178 5.226c-2.201 1.238-4.39 2.502-6.562 3.789.355-1.904.722-3.796 1.099-5.675 1.813.613 3.633 1.24 5.463 1.886zm-23.572 14.103c-5.67 3.568-11.243 7.218-16.726 10.924 1.592-12.191 3.572-24.048 5.927-35.447 4.76 1.189 9.594 2.508 14.498 3.96-1.372 6.711-2.604 13.595-3.699 20.563zm136.022-15.977c.375 1.874.742 3.76 1.096 5.664-2.174-1.28-4.346-2.536-6.548-3.783 1.825-.645 3.641-1.269 5.452-1.881zm-102.336-54.785c12.799-32.82 29.822-54.028 43.37-54.028s30.572 21.207 43.369 54.028c1.406 3.606 2.751 7.324 4.047 11.133-15.499 5.128-31.409 11.322-47.409 18.435-16.019-7.122-31.923-13.302-47.417-18.423 1.308-3.853 2.655-7.592 4.04-11.145zm-66.274 11.183c27.825 4.257 59.153 13.496 91.403 26.89-5.947 2.893-11.89 5.892-17.811 9.016-26.945-10.389-52.454-17.476-75.863-21.057-.394-.06-.795-.109-1.19-.168.701-2.915 1.083-5.954 1.083-9.081 0-2.045-.161-4.053-.467-6.014.946.133 1.894.268 2.845.414zm-41.227-18.219c13.134 0 23.819 10.685 23.819 23.818 0 13.134-10.685 23.819-23.819 23.819-13.133 0-23.818-10.685-23.818-23.819 0-13.133 10.685-23.818 23.818-23.818zm41.227 309.639c-11.471 1.754-22.339 2.644-32.302 2.644-23.106 0-53.442-4.835-66.74-27.869-13.813-23.924-3.984-58.865 27.675-98.385 2.918-3.641 6.055-7.342 9.341-11.054 3.44 3.54 7.004 7.07 10.688 10.586-2.924 3.324-5.714 6.625-8.305 9.859-27.122 33.856-36.741 63.556-26.39 81.484 7.713 13.358 26.625 20.382 53.502 20.382 9.197 0 19.328-.822 30.26-2.496 4.108-.628 8.365-1.394 12.701-2.264 1.203 4.952 2.481 9.798 3.823 14.54-4.904 1.003-9.684 1.874-14.253 2.573zm68.068 15.632c-.617-1.485-1.217-2.972-1.793-4.449-1.406-3.605-2.751-7.324-4.046-11.133 15.519-5.13 31.421-11.321 47.407-18.429 16.021 7.123 31.907 13.296 47.415 18.424-1.306 3.853-2.653 7.59-4.036 11.137-12.797 32.82-29.821 54.028-43.369 54.028-2.85 0-5.909-.983-9.124-2.892.576-2.656.887-5.41.887-8.236-.001-19.55-14.52-35.766-33.341-38.45zm-10.325-29.93c-1.35-4.717-2.625-9.563-3.82-14.536 6.496-2.166 13.072-4.54 19.653-7.075 5.933 3.133 11.871 6.142 17.805 9.031-11.344 4.711-22.595 8.923-33.638 12.58zm-7.063-29.301c-.375-1.875-.742-3.761-1.097-5.667 2.171 1.279 4.36 2.543 6.553 3.783-1.823.643-3.643 1.272-5.456 1.884zm-18.101-15.981c4.475 28.522 11.089 54.151 19.688 76.209-4.955 1.363-9.514 3.684-13.469 6.753-.169-.427-.353-.856-.519-1.282-10.224-26.219-17.885-57.96-22.411-92.576 5.464 3.692 11.035 7.327 16.711 10.896zm-33.202-22.456c1.841 17.428 4.44 34.285 7.752 50.258-3.989.795-7.901 1.497-11.673 2.074-34.821 5.327-61.699 1.189-68.474-10.545-6.775-11.733 3.08-37.08 25.105-64.573 2.379-2.97 4.942-6.004 7.627-9.064 12.195 10.866 25.483 21.537 39.663 31.85zm39.365 136.119c0-13.134 10.685-23.819 23.818-23.819 13.134 0 23.818 10.685 23.818 23.819 0 13.133-10.685 23.819-23.818 23.819-13.133-.001-23.818-10.686-23.818-23.819zm142.269-31.983c-18.396 47.179-43.741 73.161-71.366 73.161-9.053 0-17.886-2.807-26.378-8.333 4.422-2.798 8.242-6.46 11.221-10.752 5.039 2.697 10.112 4.065 15.156 4.065 20.701 0 41.613-23.181 57.372-63.597 1.506-3.863 2.969-7.93 4.385-12.121 4.887 1.432 9.726 2.754 14.511 3.963-1.571 4.702-3.207 9.27-4.901 13.614zm137.32-47.325c-13.298 23.033-43.634 27.869-66.74 27.869-9.962 0-20.83-.89-32.302-2.644-47.685-7.296-104.122-28.735-158.915-60.37-54.793-31.634-101.58-69.791-131.74-107.44-31.66-39.521-41.489-74.461-27.676-98.386 4.285-7.423 10.661-13.422 19.01-17.939.233 5.424 1.578 10.564 3.821 15.194-4.23 2.859-7.53 6.283-9.823 10.255-10.351 17.928-.732 47.628 26.39 81.484 29.021 36.227 74.311 73.099 127.527 103.823 53.217 30.725 107.794 51.511 153.677 58.53 10.933 1.672 21.059 2.495 30.256 2.495 26.878 0 45.795-7.025 53.507-20.382 4.643-8.044 5.346-18.36 2.089-30.661-1.063-4.012-5.178-6.405-9.188-5.341-4.012 1.063-6.403 5.176-5.341 9.188 2.174 8.208 1.974 14.882-.576 19.3-6.774 11.732-33.652 15.872-68.475 10.545-3.824-.585-7.717-1.277-11.665-2.062 3.31-15.991 5.901-32.871 7.741-50.29 14.202-10.329 27.519-21.004 39.678-31.836 2.652 3.026 5.198 6.051 7.617 9.07 5.436 6.786 10.183 13.478 14.107 19.891 1.417 2.316 3.887 3.593 6.417 3.593 1.337 0 2.691-.357 3.915-1.106 3.54-2.166 4.654-6.793 2.488-10.332-4.253-6.951-9.366-14.165-15.197-21.443-29.022-36.228-74.312-73.099-127.528-103.823-8.062-4.655-16.245-9.126-24.456-13.369 5.959-2.667 11.897-5.191 17.794-7.564 4.818 2.613 9.574 5.27 14.174 7.925 54.793 31.634 101.579 69.791 131.74 107.44 31.659 39.521 41.487 74.462 27.674 98.386z"/></g></g></g></g></svg>