<?xml version="1.0" encoding="utf-8"?>
<!-- Generator: Adobe Illustrator 24.1.1, SVG Export Plug-In . SVG Version: 6.00 Build 0)  -->
<svg version="1.1" id="Слой_1" xmlns="http://www.w3.org/2000/svg" xmlns:xlink="http://www.w3.org/1999/xlink" x="0px" y="0px"
	 viewBox="0 0 500 500" style="enable-background:new 0 0 500 500;" xml:space="preserve">
<style type="text/css">
	.st0{enable-background:new    ;}
</style>
<g>
	<g class="st0">
		<path d="M318.8,335.1c0,16.7-6,31-18,42.9c-12,12-26.3,18-42.9,18c-11.5,0-22.2-3.1-32.3-9.2c-9.9-6-17.4-14.3-22.6-25
			c-1.5-3.2-1.6-6.3-0.5-9.2c1-3.1,3-5.3,6.1-6.8c2.9-1.5,6-1.7,9.2-0.7c3.1,1.1,5.3,3.2,6.8,6.1c6.8,13.9,17.9,20.9,33.2,20.9
			c10,0,18.6-3.6,25.7-10.7c7.3-7.3,11-15.8,11.2-25.5v-13.3c-11.3,8.4-23.6,12.6-36.9,12.6c-16.8,0-31.2-6-43.2-18
			c-11.7-11.9-17.6-26.2-17.6-43c0-17,5.9-31.4,17.7-43.2s26.2-17.7,43.2-17.7c16.8,0,31.1,5.9,42.9,17.7c12,12,18,26.4,18,43.2
			V335.1z M257.9,311.1c10,0,18.7-3.6,26-10.9s10.9-15.9,10.9-26c0-10.2-3.6-18.9-10.9-26.2c-7.6-7.1-16.3-10.7-26-10.7
			c-10.2,0-18.8,3.6-26,10.7c-7.3,7.3-10.9,16-10.9,26.2c0,10,3.6,18.7,10.9,26C239.1,307.4,247.7,311.1,257.9,311.1z"/>
		<path d="M344.8,189.3c-3.4,0-6.2-1.1-8.5-3.4c-2.4-2.4-3.6-5.3-3.6-8.5s1.2-6.1,3.6-8.5s5.3-3.6,8.5-3.6s6.1,1.2,8.5,3.6
			c2.3,2.3,3.4,5.1,3.4,8.5s-1.1,6.2-3.4,8.5C351,188.2,348.2,189.3,344.8,189.3z M332.6,225.4c0-3.2,1.2-6.1,3.6-8.5
			c2.3-2.3,5.1-3.4,8.5-3.4c2.9,0,5.7,1.1,8.5,3.4c2.3,2.8,3.4,5.6,3.4,8.5v97.8c0,3.4-1.1,6.2-3.4,8.5c-2.4,2.4-5.3,3.6-8.5,3.6
			c-3.4,0-6.2-1.2-8.5-3.6c-2.4-2.3-3.6-5.1-3.6-8.5V225.4z"/>
		<path d="M479.7,260.4c-2.9,1.6-6,1.9-9.2,1c-3.1-0.6-5.5-2.4-7.3-5.3c-7-12.3-17.6-18.4-32-18.4c-9.7,0-18.4,3.6-26,10.7
			c-7.3,7.3-10.9,16-10.9,26.2c0,10,3.6,18.7,10.9,26s15.9,10.9,26,10.9c13.4,0,23.8-5.7,31.1-17c1.6-2.6,4.2-4.3,7.8-5.1
			c3.2-0.8,6.2-0.3,9,1.5c2.6,1.6,4.3,4.1,5.1,7.5c0.6,1.9,0.1,5-1.7,9.2c-5.5,8.7-12.8,15.5-21.8,20.4c-8.9,5-18.7,7.5-29.4,7.5
			c-16.7,0-31-6-42.9-18c-11.8-11.8-17.7-26.1-17.7-42.9c0-17,5.9-31.4,17.7-43.2c11.8-11.8,26.1-17.7,42.9-17.7
			c11,0,21.2,2.8,30.6,8.2c9.1,4.9,16.5,12.2,22.3,22.1c1.6,1.6,2,4.7,1.2,9.2C484.3,256.2,482.4,258.6,479.7,260.4z"/>
	</g>
	<g class="st0">
		<path d="M135,275.4c-0.2,16.6-6.2,30.8-18.2,42.5c-11.8,11.5-26,17.2-42.6,17.1c-16.6-0.2-30.7-6.1-42.3-17.9
			c-11.7-11.9-17.5-26.2-17.3-42.8l0.5-48.2c0-3.4,1.2-6.1,3.4-8.4c2.4-2.4,5.2-3.5,8.4-3.5c3.4,0,6.2,1.3,8.6,3.7
			c2.2,2.3,3.3,5.1,3.3,8.4l-0.5,48.2c-0.1,10.1,3.4,18.7,10.5,26c7,7.1,15.5,10.7,25.5,10.8c9.7,0.1,18.4-3.3,26-10.3
			c7.1-7.4,10.7-16,10.8-25.8l0.5-48.2c0-3.4,1.2-6.1,3.4-8.4c2.4-2.4,5.2-3.5,8.4-3.5c3.4,0,6.2,1.3,8.6,3.7
			c2.2,2.3,3.3,5.1,3.3,8.4L135,275.4z"/>
	</g>
	<g class="st0">
		<path d="M62.7,224.6c0.2-16.6,6.2-30.8,18.2-42.5c11.8-11.5,26-17.2,42.6-17.1c16.6,0.2,30.7,6.1,42.3,17.9
			c11.7,11.9,17.5,26.2,17.3,42.8l-0.5,48.2c0,3.4-1.2,6.1-3.4,8.4c-2.4,2.4-5.2,3.5-8.4,3.5c-3.4,0-6.2-1.3-8.6-3.7
			c-2.2-2.3-3.3-5.1-3.3-8.4l0.5-48.2c0.1-10.1-3.4-18.7-10.5-26c-7-7.1-15.5-10.7-25.5-10.8c-9.7-0.1-18.4,3.3-26,10.3
			c-7.1,7.4-10.7,16-10.8,25.8L86,273c0,3.4-1.2,6.1-3.4,8.4c-2.4,2.4-5.2,3.5-8.4,3.5c-3.4,0-6.2-1.3-8.6-3.7
			c-2.2-2.3-3.3-5.1-3.3-8.4L62.7,224.6z"/>
	</g>
	<g>
		<path d="M170.9,335.9c-3.4,0-6.3-1.1-8.5-3.4c-2.4-2.4-3.7-5.3-3.7-8.5s1.3-6.1,3.7-8.5s5.3-3.7,8.5-3.7s6.1,1.3,8.5,3.7
			c2.2,2.2,3.4,5.1,3.4,8.5s-1.1,6.3-3.4,8.5S174.4,335.9,170.9,335.9z"/>
	</g>
</g>
</svg>
