<?xml version="1.0" encoding="utf-8"?>
<!-- Generator: Adobe Illustrator 16.0.3, SVG Export Plug-In . SVG Version: 6.00 Build 0)  -->
<!DOCTYPE svg PUBLIC "-//W3C//DTD SVG 1.1//EN" "http://www.w3.org/Graphics/SVG/1.1/DTD/svg11.dtd">
<svg version="1.1" xmlns="http://www.w3.org/2000/svg" xmlns:xlink="http://www.w3.org/1999/xlink" x="0px" y="0px" width="24px"
	 height="24px" viewBox="0 0 24 24" enable-background="new 0 0 24 24" xml:space="preserve">
<g id="Outline_Icons_1_">
	<g id="Outline_Icons">
		<path d="M18.628,8.007C17.337,5.562,14.77,4,12,4c-3.777,0-6.941,2.819-7.427,6.512C2.123,10.315,0,12.296,0,14.75
			C0,17.718,2.348,19,4.489,19l14.575-0.004C19.114,18.989,24,18.298,24,13.5C24,10.509,21.601,8.068,18.628,8.007z M19,18H4.489
			C4.132,18,1,17.909,1,14.75c0-2.014,1.838-3.608,3.92-3.182c0.305,0.061,0.582-0.158,0.601-0.46C5.723,7.684,8.569,5,12,5
			c2.493,0,4.797,1.461,5.868,3.723c0.13,0.275,0.365,0.289,0.644,0.282C20.986,9.005,23,11.021,23,13.5
			C23,17.412,19.101,17.982,19,18z"/>
	</g>
	<g id="New_icons_1_">
	</g>
</g>
<g id="Invisible_Shape">
	<rect fill="none" width="24" height="24"/>
</g>
</svg>
