<?xml version="1.0" encoding="UTF-8"?>
<svg xmlns="http://www.w3.org/2000/svg" id="Line" width="512" height="512" viewBox="0 0 512 512"><g><path d="M372.161,231.019l23.8,13.018,13.018,23.8a8,8,0,0,0,14.038,0l13.018-23.8,23.8-13.018a8,8,0,0,0,0-14.038l-23.8-13.018-13.018-23.8a8,8,0,0,0-14.038,0l-13.018,23.8-23.8,13.018a8,8,0,0,0,0,14.038ZM405.7,216.877a8,8,0,0,0,3.18-3.18L416,200.672l7.123,13.025a8,8,0,0,0,3.18,3.18L439.328,224,426.3,231.123a8,8,0,0,0-3.18,3.18L416,247.328,408.877,234.3a8,8,0,0,0-3.18-3.18L392.672,224Z"/><path d="M268.161,119.019l23.8,13.018,13.018,23.8a8,8,0,0,0,14.038,0l13.018-23.8,23.8-13.018a8,8,0,0,0,0-14.038l-23.8-13.018-13.018-23.8a8,8,0,0,0-14.038,0l-13.018,23.8-23.8,13.018a8,8,0,0,0,0,14.038ZM301.7,104.877a8,8,0,0,0,3.18-3.18L312,88.672l7.123,13.025a8,8,0,0,0,3.18,3.18L335.328,112,322.3,119.123a8,8,0,0,0-3.18,3.18L312,135.328,304.877,122.3a8,8,0,0,0-3.18-3.18L288.672,112Z"/><path d="M445.767,339.667a91.473,91.473,0,0,0-63.589-27.642,8.092,8.092,0,0,0-7.343,4.424,8,8,0,0,0,.876,8.529A75.21,75.21,0,0,1,392,372a53.347,53.347,0,0,1-3.5,18.952,21.82,21.82,0,0,1-24.1,13.67l-89.658-14.943A31.9,31.9,0,0,1,248,358.115V320h8a8,8,0,0,0,7.428-10.971l-1.145-2.861a91.615,91.615,0,0,1,0-68.335l1.145-2.861A8,8,0,0,0,256,224H216.639l2.035-26.45v0l13.3-172.933A8,8,0,0,0,224,16H200V32h15.361l-2.069,26.9c-29.875-4.657-56.215-14.079-75.718-26.9H184V16H96a8,8,0,0,0-7.428,5.029L87.8,22.97A266.358,266.358,0,0,0,76.108,185.376l.126.522c.04.165.081.331.121.5q.136.555.274,1.108L85.754,224H48a8,8,0,0,0-7.428,10.972l1.145,2.86a91.618,91.618,0,0,1,0,68.336l-1.145,2.861A8,8,0,0,0,48,320h8v46.88L49.451,389.8,64.835,394.2l5.2-18.2H90.7A28.035,28.035,0,0,0,116,392h72a28.035,28.035,0,0,0,25.3-16H235.42a47.839,47.839,0,0,0,36.689,29.462l10.544,1.757L256.163,480h-29.2l-53.752-46.074a7.994,7.994,0,0,0-1.841-1.183l-.005,0c-.064-.03-.128-.059-.193-.087h0l-.178-.074-.029-.012-.163-.062-.067-.025-.107-.038-.137-.046-.055-.018A8.019,8.019,0,0,0,168,432H56v-6.88L60.264,410.2,44.879,405.8l-4.571,16A8,8,0,0,0,40,424v54a18.021,18.021,0,0,0,18,18h93.529a17.945,17.945,0,0,0,17.755-15.041L173.56,455.3l45.233,38.771A8.008,8.008,0,0,0,224,496H384a8.07,8.07,0,0,0,1.643-.17,92,92,0,0,0,60.124-156.163ZM102.246,224l-8.137-32.551c26.7,9.532,58.045,14.7,89.978,14.7,5.983,0,11.98-.178,17.919-.531L200.592,224ZM84.7,130.58c29.289,20.864,72.536,33.679,120.362,35.374l-1.812,23.55c-6.336.427-12.754.642-19.158.642-34.216,0-67.566-6.23-94.444-17.594A252.316,252.316,0,0,1,84.7,130.58Zm121.59,19.4c-49.9-1.7-95.542-16.591-121.437-39.707a249.2,249.2,0,0,1,3.473-31.114c18.884,14.683,45.009,26.092,75.173,32.655a280.018,280.018,0,0,0,45.27,5.941ZM111.789,32C134.073,53.141,170.1,68.533,212.061,74.9l-2.069,26.9a264.245,264.245,0,0,1-43.1-5.617c-31.4-6.833-57.748-19.1-74.795-34.74A254.546,254.546,0,0,1,101.439,32ZM72,320H88v40H72Zm128,44a12.013,12.013,0,0,1-12,12H116a12.013,12.013,0,0,1-12-12V316a12.013,12.013,0,0,1,12-12h72a12.013,12.013,0,0,1,12,12Zm-12-76H116a28.035,28.035,0,0,0-25.3,16H59.452a107.369,107.369,0,0,0,0-64h185.1a107.376,107.376,0,0,0,0,64H213.3A28.035,28.035,0,0,0,188,288Zm44,72H216V320h16ZM151.529,480H58a2,2,0,0,1-2-2V448H158.556L153.5,478.328A1.993,1.993,0,0,1,151.529,480Zm232.139-.087a8.09,8.09,0,0,0-.855.087H321.19l7.739-21.264-15.035-5.472L304.163,480H273.19L298.706,409.9l29.2,4.867-8.19,22.5,15.035,5.472,9.208-25.3,17.806,2.967a37.853,37.853,0,0,0,41.721-23.858A69.064,69.064,0,0,0,408,372a91.147,91.147,0,0,0-10.033-41.871,76.015,76.015,0,0,1-14.3,149.784Z"/><path d="M176,320H128a8,8,0,0,0-8,8v24a8,8,0,0,0,8,8h48a8,8,0,0,0,8-8V328A8,8,0,0,0,176,320Zm-8,24H136v-8h32Z"/></g></svg>
