<?xml version="1.0" encoding="utf-8"?>
<!-- Generator: Adobe Illustrator 24.3.0, SVG Export Plug-In . SVG Version: 6.00 Build 0)  -->
<svg version="1.1" id="Слой_1" xmlns="http://www.w3.org/2000/svg" xmlns:xlink="http://www.w3.org/1999/xlink" x="0px" y="0px"
	 viewBox="0 0 24 24" style="enable-background:new 0 0 24 24;" xml:space="preserve">
<g id="Outline_Icons_1_">
	<g id="Outline_Icons">
		<path d="M23.5,4C23.5,4,23.5,4,23.5,4L12.1,1C12,1,12,1,11.9,1L0.5,4c0,0,0,0,0,0C0.2,4,0,4.2,0,4.5v14c0,0.2,0.1,0.4,0.3,0.5
			l11,4c0.1,0,0.1,0,0.2,0c0.1,0,0.1,0,0.2,0l12-4c0.2-0.1,0.3-0.3,0.3-0.5v-14C24,4.2,23.8,4,23.5,4z M12,2l9.5,2.5L11.5,7L2.4,4.5
			L12,2z M1,5.2l10,2.7v13.9L1,18.1V5.2z M12,21.8V7.9l11-2.8v13L12,21.8z"/>
	</g>
	<g id="New_icons_1_">
	</g>
</g>
</svg>
