<?xml version="1.0" encoding="utf-8"?>
<!-- Generator: Adobe Illustrator 24.3.0, SVG Export Plug-In . SVG Version: 6.00 Build 0)  -->
<svg version="1.1" id="Слой_1" xmlns="http://www.w3.org/2000/svg" xmlns:xlink="http://www.w3.org/1999/xlink" x="0px" y="0px"
	 viewBox="0 0 24 24" style="enable-background:new 0 0 24 24;" xml:space="preserve">
<g id="Outline_Icons_1_">
	<g id="Outline_Icons">
		<path d="M18.6,8c-1.3-2.4-3.9-4-6.6-4c-3.8,0-6.9,2.8-7.4,6.5C2.1,10.3,0,12.3,0,14.8c0,3,2.3,4.2,4.5,4.2l14.6,0
			c0.1,0,4.9-0.7,4.9-5.5C24,10.5,21.6,8.1,18.6,8z M19,18H4.5C4.1,18,1,17.9,1,14.8c0-2,1.8-3.6,3.9-3.2c0.3,0.1,0.6-0.2,0.6-0.5
			C5.7,7.7,8.6,5,12,5c2.5,0,4.8,1.5,5.9,3.7C18,9,18.2,9,18.5,9C21,9,23,11,23,13.5C23,17.4,19.1,18,19,18z"/>
	</g>
	<g id="New_icons_1_">
	</g>
</g>
</svg>
