<?xml version="1.0" encoding="UTF-8"?>
<svg xmlns="http://www.w3.org/2000/svg" id="Line" width="512" height="512" viewBox="0 0 512 512"><g><path d="M404.161,183.019l23.8,13.018,13.018,23.8a8,8,0,0,0,14.038,0l13.018-23.8,23.8-13.018a8,8,0,0,0,0-14.038l-23.8-13.018-13.018-23.8a8,8,0,0,0-14.038,0l-13.018,23.8-23.8,13.018a8,8,0,0,0,0,14.038ZM437.7,168.877a8,8,0,0,0,3.18-3.18L448,152.672l7.124,13.025a8,8,0,0,0,3.18,3.18L471.328,176,458.3,183.123a8,8,0,0,0-3.18,3.18L448,199.328,440.876,186.3a8,8,0,0,0-3.18-3.18L424.672,176Z"/><path d="M224.229,480C170.1,480,121.637,466.047,87.76,440.711c-36.18-27.058-55.3-66.349-55.3-113.625,0-47.968,12.005-112.671,68.564-151.086H347.233a143.942,143.942,0,0,1,42.131,44.18l13.643-8.36a159.951,159.951,0,0,0-33.6-39.087A48.078,48.078,0,0,0,400,128a8,8,0,0,0-8-8H375.432A56.041,56.041,0,0,0,320,56a55.7,55.7,0,0,0-23.9,5.34A80,80,0,0,0,173.709,33.781l10.064,12.438A63.283,63.283,0,0,1,224,32a64.049,64.049,0,0,1,59.353,88H164.647a64.114,64.114,0,0,1,9.572-64.227L161.781,45.709a79.574,79.574,0,0,0-9.876,15.631A56.032,56.032,0,0,0,72,112a56.5,56.5,0,0,0,.568,8H56a8,8,0,0,0-8,8,48.078,48.078,0,0,0,30.76,44.8c-40.851,34.324-62.3,87.191-62.3,154.288,0,44.787,15.521,83.175,45.131,112.235l-4.511,15.788a32.079,32.079,0,0,0,60.539,20.95C148.344,489.186,184.456,496,224.229,496a311.368,311.368,0,0,0,49.035-3.783l-2.528-15.8A295.419,295.419,0,0,1,224.229,480ZM320,72a40.045,40.045,0,0,1,39.2,48H300.345a80.478,80.478,0,0,0,1.245-43.525A39.762,39.762,0,0,1,320,72ZM128,72a39.756,39.756,0,0,1,18.427,4.484A80.211,80.211,0,0,0,147.654,120H88.8A40.041,40.041,0,0,1,128,72ZM65.013,136H382.987A32.054,32.054,0,0,1,352,160H96A32.054,32.054,0,0,1,65.013,136ZM87.922,480a16.078,16.078,0,0,1-15.46-20.5l2.429-8.5q1.621,1.276,3.287,2.522a184.54,184.54,0,0,0,24.937,15.661A16.107,16.107,0,0,1,87.922,480Z"/><path d="M120.52,291.839l13.017-23.8,23.8-13.018a8,8,0,0,0,0-14.038l-23.8-13.018-13.017-23.8a8,8,0,0,0-14.038,0l-13.018,23.8-23.8,13.018a8,8,0,0,0,0,14.038l23.8,13.018,13.018,23.8a8,8,0,0,0,14.038,0ZM106.377,258.3a8,8,0,0,0-3.18-3.18L90.173,248l13.024-7.123a8,8,0,0,0,3.18-3.18l7.124-13.025,7.123,13.024a7.992,7.992,0,0,0,3.18,3.181L136.829,248,123.8,255.124a7.989,7.989,0,0,0-3.18,3.18L113.5,271.328Z"/><path d="M118.019,384.876l23.8,13.019,13.018,23.8a8,8,0,0,0,14.037,0L181.9,397.9l23.8-13.019a8,8,0,0,0,0-14.037l-23.8-13.018-13.019-23.8a8,8,0,0,0-14.037,0l-13.018,23.8-23.8,13.018a8,8,0,0,0,0,14.037Zm33.536-14.142a8,8,0,0,0,3.179-3.179l7.123-13.025,7.124,13.025a8.006,8.006,0,0,0,3.18,3.179l13.025,7.123-13.025,7.124a8.014,8.014,0,0,0-3.18,3.18l-7.124,13.025-7.123-13.025a8.006,8.006,0,0,0-3.179-3.18l-13.025-7.124Z"/><path d="M477.886,337.5A120.04,120.04,0,1,1,474,322.506l15.195-5.012A135.826,135.826,0,0,0,360,224c-74.99,0-136,61.01-136,136s61.01,136,136,136,136-61.01,136-136a136.7,136.7,0,0,0-2.4-25.5Z"/><path d="M360,256A104,104,0,1,0,464,360,104.118,104.118,0,0,0,360,256Zm0,192a88,88,0,1,1,88-88A88.1,88.1,0,0,1,360,448Z"/><path d="M403.2,347.334a63.41,63.41,0,0,0-9.273-.777q1.046-1.581,1.97-3.135a30.2,30.2,0,0,0,5.627-17.7c0-16.388-12.843-29.721-28.629-29.721A27.853,27.853,0,0,0,360,299.186,27.853,27.853,0,0,0,347.106,296c-15.786,0-28.629,13.333-28.629,29.721a30.2,30.2,0,0,0,5.627,17.7q.923,1.551,1.97,3.136a67.445,67.445,0,0,0-7.035.459l1.922,15.884c6.716-.812,14.551-.079,22,.744a8,8,0,0,0,6.532-13.612A79.665,79.665,0,0,1,337.7,334.984a7.731,7.731,0,0,0-.463-.7,14.311,14.311,0,0,1-2.763-8.561c0-7.566,5.666-13.721,12.629-13.721a11.875,11.875,0,0,1,7.735,2.878,8,8,0,0,0,10.318,0A11.875,11.875,0,0,1,372.894,312c6.963,0,12.629,6.155,12.629,13.721a14.311,14.311,0,0,1-2.763,8.561,7.731,7.731,0,0,0-.463.7,79.665,79.665,0,0,1-11.789,15.049,8,8,0,0,0,6.532,13.612c8.2-.908,16.8-1.691,23.827-.478a8.013,8.013,0,0,0,.8.1,15.747,15.747,0,0,1,8.826,3.517,14.437,14.437,0,0,1,5.453,9.734,10.773,10.773,0,0,1-2.506,8.147,11.767,11.767,0,0,1-7.188,3.891,8,8,0,0,0-6.741,8.079,10.721,10.721,0,0,1-2.555,7.305c-4.483,5.241-13.127,5.469-19.266.51a14.691,14.691,0,0,1-5.069-7.6,7.605,7.605,0,0,0-.264-.807,49.507,49.507,0,0,1-1.551-4.779,11.221,11.221,0,0,0-21.616,0,49.575,49.575,0,0,1-1.551,4.778,7.605,7.605,0,0,0-.264.807,14.689,14.689,0,0,1-5.068,7.594c-6.141,4.961-14.784,4.733-19.268-.51a10.721,10.721,0,0,1-2.554-7.3,8,8,0,0,0-6.741-8.079,11.764,11.764,0,0,1-7.188-3.892,10.769,10.769,0,0,1-2.506-8.146,14.437,14.437,0,0,1,5.453-9.734L299.45,354.335a30.516,30.516,0,0,0-11.331,20.712,26.741,26.741,0,0,0,6.278,20.014,27.393,27.393,0,0,0,10.707,7.611,26.616,26.616,0,0,0,5.778,11.663c10.059,11.764,28.668,12.908,41.482,2.558A31.288,31.288,0,0,0,360,407.925a31.249,31.249,0,0,0,7.637,8.968,31.68,31.68,0,0,0,19.884,7.072,28.175,28.175,0,0,0,21.6-9.629,26.616,26.616,0,0,0,5.779-11.664,27.4,27.4,0,0,0,10.707-7.61,26.744,26.744,0,0,0,6.278-20.015,30.514,30.514,0,0,0-11.33-20.711A31.68,31.68,0,0,0,403.2,347.334Z"/><rect x="240" y="64" width="16" height="16"/></g></svg>
