<?xml version="1.0" encoding="UTF-8"?>
<svg xmlns="http://www.w3.org/2000/svg" id="Line" width="512" height="512" viewBox="0 0 512 512"><g><path d="M472,172c0-15.982-20.357-28.359-62.234-37.839l-3.532,15.606C446.857,158.962,456,169.154,456,172c0,3.046-10.027,13.862-54.578,23.286C362.665,203.484,311.019,208,256,208s-106.665-4.516-145.422-12.714C66.027,185.862,56,175.046,56,172c0-2.846,9.143-13.038,49.766-22.233l-3.532-15.606C60.357,143.641,40,156.018,40,172c0,12.065,11.585,22.082,35.235,30.328a100.3,100.3,0,0,0-12.068,34.15,218.681,218.681,0,0,0-1.618,56.492,177.129,177.129,0,0,0-3.718,17.806l15.812,2.448A161.168,161.168,0,0,1,77.38,295.7a8,8,0,0,0,.233-2.961A202.6,202.6,0,0,1,78.968,239,83.976,83.976,0,0,1,91.042,207.11q6.108,1.614,12.958,3.124v48.185a125.58,125.58,0,0,0,40.866,92.7A77.154,77.154,0,0,0,144,362.667a80.315,80.315,0,0,0,1.378,14.813,8,8,0,0,0,14.677,2.71,53.511,53.511,0,0,1,9.425-11.482A125.388,125.388,0,0,0,229.581,384h52.838a125.593,125.593,0,0,0,60.1-15.291,53.481,53.481,0,0,1,9.425,11.481,8,8,0,0,0,14.677-2.71A80.315,80.315,0,0,0,368,362.667a77.29,77.29,0,0,0-.865-11.545A125.5,125.5,0,0,0,408,258.419V210.234q3.1-.683,6.039-1.386A84.225,84.225,0,0,1,425.032,239a202.6,202.6,0,0,1,1.355,53.747,7.993,7.993,0,0,0,.233,2.961c3.389,12.473,7.706,34.42,3.853,55.764l-4.824-5.574a8,8,0,0,0-13.436,2.162,192.852,192.852,0,0,1-48.327,68.77,8,8,0,0,0-2.446,4.186c-2.991,13.318-7.41,24.765-13.19,34.2l-3.986-11.435a8,8,0,0,0-11.541-4.3c-3.616,2.078-7.353,4.054-11.107,5.875L252,479.108l-69.616-33.76c-3.754-1.821-7.491-3.8-11.107-5.875a8,8,0,0,0-11.541,4.3L155.75,455.21c-5.78-9.434-10.2-20.881-13.19-34.2a8,8,0,0,0-2.446-4.186,192.85,192.85,0,0,1-48.327-68.769,8,8,0,0,0-13.436-2.162l-4.827,5.578a104.268,104.268,0,0,1-1.407-23.121l-15.984-.7c-.7,16,1.38,30.528,6.186,43.19a8,8,0,0,0,13.529,2.4l6.418-7.416a208.441,208.441,0,0,0,45.258,61.173c5.021,20.867,13.408,37.819,24.949,50.413a8,8,0,0,0,13.452-2.772l5.824-16.708q1.821.93,3.654,1.819L248.509,495.2a8,8,0,0,0,6.982,0L328.6,459.744q1.83-.888,3.654-1.819l5.824,16.708a8,8,0,0,0,13.452,2.772c11.541-12.594,19.928-29.546,24.949-50.413a208.45,208.45,0,0,0,45.258-61.173l6.418,7.416a8,8,0,0,0,13.529-2.4c4.715-12.422,11.014-38.947.77-77.87a218.678,218.678,0,0,0-1.618-56.492A100.576,100.576,0,0,0,430,204.538C458.208,195.89,472,185.165,472,172ZM160.453,355.35C164.532,322.5,195.638,296,232,296c9.57,0,16,6.43,16,16,0,18.984-10.466,24-16,24h-8.667C196.6,336,175.54,342.494,160.453,355.35ZM282.419,368H229.581a109.545,109.545,0,0,1-44.347-9.349c10.359-4.454,23.012-6.651,38.1-6.651H232c10.584,0,18.625-5.108,24-12.719C261.375,346.892,269.416,352,280,352h8.667c15.086,0,27.739,2.2,38.1,6.65A109.741,109.741,0,0,1,282.419,368Zm79.844-34.528a82.969,82.969,0,0,0-20.847-29.633l-10.831,11.777c11.887,10.933,19.177,24.836,20.977,39.746C336.473,342.5,315.414,336,288.667,336H280c-12.656,0-16-15.7-16-24,0-9.569,6.43-16,16-16a75.33,75.33,0,0,1,36.151,9.271l7.7-14.028A91.4,91.4,0,0,0,280,280c-9.855,0-18.275,3.8-24,10.149C250.275,283.8,241.855,280,232,280a90.408,90.408,0,0,0-61.585,24,82.942,82.942,0,0,0-20.676,29.477A109.566,109.566,0,0,1,120,258.419V213.425C158.02,220.27,205.692,224,256,224s97.98-3.73,136-10.575v44.994A109.5,109.5,0,0,1,362.263,333.472Z"/><path d="M118.61,167.878l136,24a7.979,7.979,0,0,0,2.78,0l136-24a8,8,0,0,0,6.4-9.71l-20.706-88-15.574,3.664,8.415,35.765L328,116.532q.007-1.231-.106-2.479a28.479,28.479,0,0,0-11.571-19.934,32.736,32.736,0,0,0-17.194-6.455,66.387,66.387,0,0,0-8.588-.707q.624-.91,1.2-1.81a27.6,27.6,0,0,0,5.782-16.978A28.435,28.435,0,0,0,268.894,40,29.124,29.124,0,0,0,256,43.021,29.124,29.124,0,0,0,243.106,40a28.435,28.435,0,0,0-28.63,28.169,27.6,27.6,0,0,0,5.782,16.978q.576.9,1.2,1.81a66.387,66.387,0,0,0-8.588.707,32.736,32.736,0,0,0-17.194,6.455,28.479,28.479,0,0,0-11.571,19.934q-.114,1.246-.106,2.479L140.078,109.6l17.9-76.055A1.992,1.992,0,0,1,159.92,32H352.08a1.992,1.992,0,0,1,1.947,1.542l5.715,24.29,15.574-3.664L369.6,29.878A17.93,17.93,0,0,0,352.08,16H159.92A17.93,17.93,0,0,0,142.4,29.878l-30.186,128.29a8,8,0,0,0,6.4,9.71Zm81.429-52.364a12.5,12.5,0,0,1,5.238-8.6,17.012,17.012,0,0,1,9.014-3.314c.251-.017.5-.044.748-.084a53.35,53.35,0,0,1,8.362-.583c5.038,0,10.41.487,15.622,1.021a8,8,0,0,0,6.256-13.822,74.578,74.578,0,0,1-11.713-13.879,7.669,7.669,0,0,0-.5-.7,11.77,11.77,0,0,1-2.59-7.384A12.42,12.42,0,0,1,243.106,56a12.764,12.764,0,0,1,7.958,2.72,8,8,0,0,0,9.872,0A12.764,12.764,0,0,1,268.894,56a12.42,12.42,0,0,1,12.63,12.169,11.77,11.77,0,0,1-2.59,7.384,7.669,7.669,0,0,0-.5.7,74.578,74.578,0,0,1-11.713,13.879,8,8,0,0,0,6.256,13.822c8.245-.846,16.891-1.575,23.984-.438.248.04.5.067.748.084a17.012,17.012,0,0,1,9.014,3.314,12.5,12.5,0,0,1,5.238,8.6,8.631,8.631,0,0,1-2.323,6.8,12.279,12.279,0,0,1-7.3,3.627,8,8,0,0,0-6.829,8.1,8.65,8.65,0,0,1-2.359,6.165c-4.491,4.879-13.508,5.083-19.688.445a13.048,13.048,0,0,1-4.883-6.726,8.251,8.251,0,0,0-.3-.851,42.577,42.577,0,0,1-1.519-4.341,11.289,11.289,0,0,0-21.53,0,42.577,42.577,0,0,1-1.519,4.341,8.251,8.251,0,0,0-.3.851,13.051,13.051,0,0,1-4.882,6.726c-6.181,4.636-15.2,4.433-19.689-.444a8.654,8.654,0,0,1-2.359-6.166,8,8,0,0,0-6.829-8.1,12.279,12.279,0,0,1-7.3-3.627A8.631,8.631,0,0,1,200.039,115.514Zm-8.74,18.369a27.6,27.6,0,0,0,9.91,6.312,24.847,24.847,0,0,0,5.868,10.851c10.142,11.011,28.178,12.067,41.06,2.4A30.094,30.094,0,0,0,256,144.789a30.083,30.083,0,0,0,7.864,8.661,32.887,32.887,0,0,0,19.7,6.605,28.814,28.814,0,0,0,21.361-9.01,24.817,24.817,0,0,0,5.868-10.85,27.6,27.6,0,0,0,9.91-6.312l54.9-8.667,6.677,28.377L256,175.876,129.726,153.593l6.677-28.377Z"/></g></svg>
